<?xml version="1.0" encoding="UTF-8" standalone="no"?>
<!-- Created with Inkscape (http://www.inkscape.org/) -->

<svg
   width="500mm"
   height="500mm"
   viewBox="0 0 500 500"
   version="1.1"
   id="svg1"
   xml:space="preserve"
   inkscape:version="1.5-dev (a3fcb9c, 2024-11-25, custom)"
   sodipodi:docname="LOGO03.svg"
   xmlns:inkscape="http://www.inkscape.org/namespaces/inkscape"
   xmlns:sodipodi="http://sodipodi.sourceforge.net/DTD/sodipodi-0.dtd"
   xmlns="http://www.w3.org/2000/svg"
   xmlns:svg="http://www.w3.org/2000/svg"><sodipodi:namedview
     id="namedview1"
     pagecolor="#505050"
     bordercolor="#eeeeee"
     borderopacity="1"
     inkscape:showpageshadow="0"
     inkscape:pageopacity="0"
     inkscape:pagecheckerboard="0"
     inkscape:deskcolor="#505050"
     inkscape:document-units="mm"
     inkscape:zoom="0.25"
     inkscape:cx="632"
     inkscape:cy="1162"
     inkscape:window-width="1920"
     inkscape:window-height="1040"
     inkscape:window-x="1912"
     inkscape:window-y="-8"
     inkscape:window-maximized="1"
     inkscape:current-layer="layer2"
     showborder="false"
     borderlayer="false"
     shape-rendering="crispEdges" /><defs
     id="defs1" /><rect
     style="fill:#919191;fill-opacity:1;stroke-width:0.245863"
     id="rect3"
     width="499.86404"
     height="500.09555"
     x="596.99921"
     y="-613.93256" /><g
     inkscape:label="Camada 1"
     inkscape:groupmode="layer"
     id="layer1"><path
       style="display:inline;fill:#ffffff;fill-opacity:1;stroke-width:3.77955"
       d="m 596.89777,-363.83356 v -250.00132 h 250.00126 250.00127 v 250.00132 250.0013 H 846.89903 596.89777 Z m 286.67031,171.38737 c 14.97483,-3.32358 27.53871,-7.85956 42.12622,-15.20909 18.96198,-9.55341 30.11278,-19.04525 46.78685,-35.65259 15.49938,-15.43731 24.93827,-28.40945 34.30235,-47.1428 l 5.0574,-10.11755 5.7795,-0.65409 c 14.885,-1.68453 25.4744,-14.59643 23.9751,-29.23348 -0.8896,-8.68551 -3.3309,-12.25381 -15.0868,-22.05205 -2.517,-2.09789 -2.6088,-2.55505 -2.6096,-13.00006 -5e-4,-5.95415 -0.467,-15.77575 -1.0367,-21.82579 -3.7624,-39.95449 -23.87526,-80.51443 -53.95961,-108.81567 -45.57256,-42.87141 -106.4578,-58.2291 -168.86542,-42.59459 l -8.37985,2.09934 -4.35257,-4.97565 c -5.36247,-6.13008 -10.67412,-8.45044 -19.40631,-8.47753 -18.10706,-0.0562 -29.65663,14.43748 -26.10833,32.76341 l 0.96815,5.00003 -5.63958,5.00002 c -12.80405,11.35202 -22.80899,21.46564 -28.83732,29.15043 -17.21939,21.95097 -29.36345,47.26259 -35.476,73.94196 -2.02838,8.85325 -2.26676,12.4637 -2.23881,33.90836 0.0223,17.01494 0.49642,26.91059 1.62943,34.00016 1.53297,9.59226 8.38482,33.0101 11.33742,38.74836 1.3453,2.61454 1.22003,2.99359 -2.57656,7.79664 -8.77585,11.1023 -8.2252,25.12424 1.40526,35.78399 5.51955,6.10948 10.45718,7.60025 22.70256,6.85421 l 10.09795,-0.6152 6.6178,6.29982 c 26.61182,25.33314 55.73835,41.93789 90.78711,49.4451 10.28638,2.20325 22.44493,3.40522 36.26141,3.15792 20.77057,-0.37191 27.40783,-1.95655 34.73895,-3.58361 z m -60.19928,-11.31702 c -20.72407,-3.65059 -43.9732,-11.60295 -58.18101,-19.90075 -10.34405,-6.04127 -25.63987,-17.71549 -34.14231,-26.05851 -6.08903,-5.97486 -7.23288,-7.59288 -6.65429,-9.41284 2.24942,-7.07539 2.80278,-13.00675 1.7444,-18.69795 -2.22086,-11.94208 -10.56338,-19.26049 -23.46214,-20.58201 l -6.63349,-0.67965 -3.95356,-10.61919 c -8.1378,-21.85806 -10.81408,-40.11533 -9.90623,-67.57905 0.41412,-12.52792 1.08199,-18.23039 3.04984,-26.0406 10.0421,-39.85603 31.07536,-72.42016 61.94587,-95.90588 l 3.77734,-2.87375 4.19764,1.88956 c 6.13762,2.76281 18.81663,2.59164 24.34252,-0.32882 7.15332,-3.7804 12.16931,-10.85679 13.77542,-19.43409 0.83276,-4.44708 3.66802,-5.79877 18.50621,-8.8226 28.44884,-5.79751 61.42928,-4.07674 86.83797,4.53081 35.36155,11.97925 68.36701,38.02686 88.15217,69.56883 5.86634,9.35222 13.38465,25.72386 16.93445,36.87571 5.1112,16.05722 7.3522,29.72463 8.6984,53.05078 l 0.6089,10.55057 -5.6977,1.79604 c -7.9785,2.51498 -14.68285,9.29579 -16.97008,17.16353 -2.91218,10.01761 -0.48484,19.2222 6.95313,26.36653 l 3.56775,3.42687 -5.40424,10.34821 c -19.92717,38.1574 -50.55411,66.39281 -88.28544,81.3916 -13.17179,5.23604 -32.38327,9.64211 -47.22112,10.83011 -17.77037,1.42277 -24.55659,1.26441 -36.5804,-0.85361 z m 31.483,-32.68336 3.10618,-2.61367 -0.27931,-125.80672 -0.27931,-125.80671 -2.32007,-2.46934 c -2.69001,-2.86304 -6.70042,-3.91167 -10.79847,-2.82354 -6.03729,1.60305 -5.79386,-3.63967 -6.16409,132.74384 l -0.33714,124.11148 3.13645,2.63917 c 4.25131,3.57723 9.70296,3.58721 13.93583,0.0264 z m -32.20288,-7.21725 c 0.7257,-0.9007 1.25,-4.40725 1.25,-8.36032 0,-8.61199 -0.79282,-9.44399 -13.05746,-13.70184 -19.93986,-6.92247 -37.44199,-18.4985 -48.82709,-32.29459 -6.33981,-7.6824 -13.79776,-20.94055 -16.48899,-29.31281 -2.17089,-6.75363 -3.53626,-14.43806 -2.66136,-14.97875 0.88298,-0.5457 28.79409,15.3479 42.45499,24.1754 5.54388,3.58241 13.22978,9.10278 17.07978,12.2675 9.78374,8.04224 18.60656,14.0883 19.63297,13.45395 0.47694,-0.2948 0.86714,-6.08174 0.86714,-12.85991 v -12.32397 l -6.75,-5.78486 c -8.60671,-7.37605 -20.89648,-15.39814 -44.75025,-29.21053 -10.45007,-6.05102 -23.89547,-13.98024 -29.87872,-17.62047 -11.00335,-6.69449 -13.21884,-7.43966 -16.65362,-5.60141 -6.40014,3.42526 -6.58492,30.27773 -0.35641,51.77148 10.60941,36.61085 37.86777,64.3249 76.88879,78.17422 14.22934,5.05023 18.59393,5.50355 21.25008,2.20691 z m 69.63166,-0.2793 c 40.83157,-13.92681 71.1633,-44.63365 80.71647,-81.71483 4.269,-16.57035 4.63996,-39.66808 0.7674,-47.78518 -2.0606,-4.3192 -6.87276,-4.3769 -13.54544,-0.16252 -2.84932,1.79959 -12.45545,7.77203 -21.34699,13.27207 -30.13212,18.63883 -42.79312,27.3895 -49.87451,34.47089 -12.64225,12.64221 -17.46208,26.96148 -16.88214,50.15508 0.24718,9.88234 0.51016,11.39394 2.03377,11.68587 2.52201,0.48322 12.39189,-4.27357 13.61699,-6.56269 0.57124,-1.06731 1.52655,-5.8676 2.12301,-10.66729 1.81157,-14.57846 6.94249,-24.18944 17.59625,-32.96029 5.66206,-4.66134 29.57517,-19.54849 41.91415,-26.09364 l 5.00003,-2.65227 0.30918,2.48789 c 0.42988,3.45844 -5.09049,19.45888 -9.85265,28.55709 -10.75243,20.54289 -33.00715,38.51449 -63.22594,51.05759 -4.36262,1.81082 -8.24146,4.10742 -8.84645,5.23789 -1.14343,2.13654 -0.39312,9.96542 1.24925,13.03447 1.4317,2.67536 7.80968,2.19993 18.24754,-1.36017 z m -5.02885,-107.95247 c 37.74939,-12.63655 67.25994,-40.07511 82.2104,-76.43831 2.34298,-5.69869 3.88495,-11.28294 4.20372,-15.22357 0.47387,-5.85879 0.36359,-6.27522 -1.88142,-7.10525 -4.07046,-1.50493 -37.11213,-2.26582 -47.64456,-1.0972 -5.59602,0.62094 -14.18894,2.52077 -20.19547,4.46513 -5.7502,1.86138 -10.66651,3.17277 -10.92508,2.91421 -0.25851,-0.25851 -0.72888,-6.4955 -1.04512,-13.85978 -0.47909,-11.15734 -0.88687,-13.73385 -2.44586,-15.45408 -2.59299,-2.86111 -7.745,-4.42634 -10.7762,-3.27388 -5.3783,2.04481 -5.32712,1.68046 -5.69132,40.51466 l -0.33827,36.07536 8.91358,-8.59272 c 14.13625,-13.62743 28.53951,-19.62564 52.56687,-21.89152 6.07505,-0.57286 11.41064,-0.6573 11.87999,-0.18784 2.28905,2.28901 -10.87028,20.83049 -23.02678,32.44473 -12.48438,11.92749 -24.75142,19.36417 -41.85311,25.37269 -5.93737,2.08601 -8.34509,3.43358 -8.73642,4.88957 -0.73856,2.748 -0.70942,15.97656 0.0393,17.92821 0.88881,2.3161 4.48198,1.95538 14.7456,-1.48034 z m -65.45986,-0.8506 c 1.85557,-1.17502 2.96014,-8.96614 2.08688,-14.7202 -0.79918,-5.26619 -1.52101,-5.85312 -10.97989,-8.9277 -7.91566,-2.57297 -21.50104,-9.35256 -29.16778,-14.55579 -11.67524,-7.92371 -28.92242,-28.00954 -33.6558,-39.19522 l -1.18962,-2.81119 7.25646,0.64531 c 29.7054,2.64161 43.83724,8.09833 59.68106,23.04458 3.91742,3.69549 7.39351,6.44821 7.72459,6.11712 0.33109,-0.33108 0.62118,-15.3581 0.64461,-33.39339 0.0378,-28.34532 -0.17727,-33.21299 -1.57826,-35.90059 -3.25579,-6.24517 -11.79737,-6.8403 -16.06853,-1.11954 -1.75449,2.34994 -2.11835,4.60387 -2.4756,15.33472 -0.40656,12.21224 -0.48095,12.56616 -2.545,12.10857 -15.85928,-3.51569 -29.30996,-5.85742 -39.12639,-6.81179 -15.20851,-1.4786 -30.51356,-0.6609 -34.84617,1.86168 -2.8231,1.64373 -3.18601,2.39 -3.45892,7.11265 -0.37154,6.43196 1.52043,12.4928 7.84327,25.12315 15.45532,30.87307 40.57245,52.14924 75.46204,63.92221 9.49771,3.20488 12.12687,3.60041 14.39305,2.16542 z m -130.76801,92.0305 c -7.53687,-7.04051 -6.68506,-17.94789 1.89784,-24.30162 4.18165,-3.0956 10.24614,-3.08033 14.50992,-0.79971 5.93343,3.17369 7.26415,9.6742 7.26907,13.18324 0.0673,5.64022 -5.66562,13.78586 -10.89966,14.62163 -5.15569,0.82326 -10.08742,-0.19087 -12.77717,-2.70354 z m 316.17454,-54.07712 c -8.63673,-5.26611 -8.64833,-18.97121 -0.023,-25.40151 5.2861,-3.14914 9.9867,-2.28363 9.9867,-2.28363 0,0 5.2876,0.67329 9.5664,4.59064 2.72,2.49019 4.2058,6.4614 4.2346,10.33226 -0.098,4.20913 -3.7575,10.6584 -7.3689,12.76576 -4.3173,2.51926 -12.1264,2.60052 -16.3972,-0.004 z M 760.39858,-510.70504 c -6.26936,-3.89377 -9.30477,-6.84161 -8.83578,-13.04291 0.50537,-6.68238 1.3731,-8.60584 5.31737,-12.28515 8.0713,-5.97718 14.66463,-4.91152 20.40444,1.07956 7.5524,7.88303 5.88993,19.60151 -3.45704,24.36764 -4.44376,2.26593 -9.66332,2.21962 -13.42899,-0.11913 z"
       id="path1"
       sodipodi:nodetypes="cccccccccsssscssssssscssscssscssssscsssscsscsscsssscscsssssscssscsssccccccssccsccsssssssssscsssscssssssssssssssscsssssssssssssssssscsscssscssssssscsssccsscsscsssssscsscccscsccsscssss"
       inkscape:label="path1" /><path
       style="display:inline;fill:#20c772;fill-opacity:1;stroke-width:3.77955"
       d="M -2.1188957,-361.71698 V -611.7183 H 247.88236 497.88363 v 250.00132 250.0013 H 247.88236 -2.1188957 Z M 284.55141,-190.32961 c 14.97483,-3.32358 27.53871,-7.85956 42.12622,-15.20909 18.96198,-9.55341 30.11278,-19.04525 46.78685,-35.65259 15.49938,-15.43731 24.93827,-28.40945 34.30236,-47.1428 l 5.05738,-10.11755 5.7795,-0.65409 c 14.88501,-1.68453 25.47441,-14.59643 23.97511,-29.23348 -0.8896,-8.68551 -3.3309,-12.25381 -15.0868,-22.05205 -2.517,-2.09789 -2.6088,-2.55505 -2.6096,-13.00006 -5e-4,-5.95415 -0.467,-15.77575 -1.0367,-21.82579 -3.7624,-39.95449 -23.87526,-80.51443 -53.95961,-108.81567 -45.57256,-42.87141 -106.4578,-58.2291 -168.86542,-42.59458 l -8.37985,2.09934 -4.35257,-4.97565 c -5.36247,-6.13009 -10.67412,-8.45045 -19.40631,-8.47754 -18.10706,-0.0562 -29.65663,14.43748 -26.10833,32.76341 l 0.96815,5.00003 -5.63958,5.00002 c -12.80405,11.35202 -22.80899,21.46564 -28.83732,29.15043 -17.219386,21.95097 -29.363446,47.26259 -35.475996,73.94196 -2.02838,8.85325 -2.26676,12.4637 -2.23881,33.90836 0.0223,17.01494 0.49642,26.91059 1.62943,34.00016 1.53297,9.59226 8.38482,33.0101 11.33742,38.74836 1.3453,2.61454 1.22003,2.99359 -2.57656,7.79664 -8.77585,11.1023 -8.2252,25.12424 1.40526,35.78399 5.51955,6.10948 10.45718,7.60025 22.702556,6.85421 l 10.09795,-0.6152 6.6178,6.29982 c 26.61182,25.33314 55.73835,41.93789 90.78711,49.4451 10.28638,2.20325 22.44493,3.40522 36.26141,3.15792 20.77057,-0.37191 27.40783,-1.95655 34.73895,-3.58361 z m -60.19928,-11.31702 c -20.72407,-3.65059 -43.9732,-11.60295 -58.18101,-19.90075 -10.34405,-6.04127 -25.63987,-17.71549 -34.14231,-26.05851 -6.08903,-5.97486 -7.23288,-7.59288 -6.65429,-9.41284 2.24942,-7.07539 2.80278,-13.00675 1.7444,-18.69795 -2.22086,-11.94208 -10.56338,-19.26049 -23.46214,-20.58201 l -6.633486,-0.67965 -3.95356,-10.61919 c -8.1378,-21.85806 -10.81408,-40.11533 -9.90623,-67.57905 0.41412,-12.52792 1.08199,-18.23039 3.04984,-26.0406 10.0421,-39.85603 31.075356,-72.42016 61.945866,-95.90588 l 3.77734,-2.87375 4.19764,1.88956 c 6.13762,2.76281 18.81663,2.59164 24.34252,-0.32882 7.15332,-3.7804 12.16931,-10.85679 13.77542,-19.43409 0.83276,-4.44708 3.66802,-5.79877 18.50621,-8.8226 28.44884,-5.79751 61.42928,-4.07674 86.83797,4.53082 35.36155,11.97924 68.36701,38.02685 88.15217,69.56882 5.86634,9.35222 13.3847,25.72386 16.93445,36.87571 5.11122,16.05722 7.35216,29.72463 8.6984,53.05078 l 0.60891,10.55057 -5.69774,1.79604 c -7.97847,2.51498 -14.68282,9.29579 -16.97005,17.16353 -2.91218,10.01761 -0.48484,19.2222 6.95313,26.36653 l 3.56773,3.42687 -5.40422,10.34821 c -19.92717,38.1574 -50.55411,66.39281 -88.28544,81.3916 -13.17179,5.23604 -32.38327,9.64211 -47.22112,10.83011 -17.77037,1.42277 -24.55659,1.26441 -36.5804,-0.85361 z m 31.483,-32.68336 3.10618,-2.61367 -0.27931,-125.80672 -0.27931,-125.80671 -2.32007,-2.46934 c -2.69001,-2.86304 -6.70042,-3.91167 -10.79847,-2.82354 -6.03729,1.60305 -5.79386,-3.63967 -6.16409,132.74384 l -0.33714,124.11148 3.13645,2.63917 c 4.25131,3.57723 9.70296,3.58721 13.93583,0.0264 z m -32.20288,-7.21725 c 0.7257,-0.9007 1.25,-4.40725 1.25,-8.36032 0,-8.61199 -0.79282,-9.44399 -13.05746,-13.70184 -19.93986,-6.92247 -37.44199,-18.4985 -48.82709,-32.29459 -6.33981,-7.6824 -13.79776,-20.94055 -16.48899,-29.31281 -2.17089,-6.75363 -3.53626,-14.43806 -2.66136,-14.97875 0.88298,-0.5457 28.79409,15.3479 42.45499,24.1754 5.54388,3.58241 13.22978,9.10278 17.07978,12.2675 9.78374,8.04224 18.60656,14.0883 19.63297,13.45395 0.47694,-0.2948 0.86714,-6.08174 0.86714,-12.85991 v -12.32397 l -6.75,-5.78486 c -8.60671,-7.37605 -20.89648,-15.39814 -44.75025,-29.21053 -10.45007,-6.05102 -23.89547,-13.98024 -29.87872,-17.62047 -11.00335,-6.69449 -13.21884,-7.43966 -16.65362,-5.60141 -6.40014,3.42526 -6.58492,30.27773 -0.35641,51.77148 10.60941,36.61085 37.86777,64.3249 76.88879,78.17422 14.22934,5.05023 18.59393,5.50355 21.25008,2.20691 z m 69.63166,-0.2793 c 40.83157,-13.92681 71.1633,-44.63365 80.71647,-81.71483 4.269,-16.57035 4.63996,-39.66808 0.7674,-47.78518 -2.0606,-4.3192 -6.87276,-4.3769 -13.54544,-0.16252 -2.84932,1.79959 -12.45545,7.77203 -21.34699,13.27207 -30.13212,18.63883 -42.79312,27.3895 -49.87451,34.47089 -12.64225,12.64221 -17.46208,26.96148 -16.88214,50.15508 0.24718,9.88234 0.51016,11.39394 2.03377,11.68587 2.52201,0.48322 12.39189,-4.27357 13.61699,-6.56269 0.57124,-1.06731 1.52655,-5.8676 2.12301,-10.66729 1.81157,-14.57846 6.94249,-24.18944 17.59625,-32.96029 5.66206,-4.66134 29.57517,-19.54849 41.91415,-26.09364 l 5.00003,-2.65227 0.30918,2.48789 c 0.42988,3.45844 -5.09049,19.45888 -9.85265,28.55709 -10.75243,20.54289 -33.00715,38.51449 -63.22594,51.05759 -4.36262,1.81082 -8.24146,4.10742 -8.84645,5.23789 -1.14343,2.13654 -0.39312,9.96542 1.24925,13.03447 1.4317,2.67536 7.80968,2.19993 18.24754,-1.36017 z m -5.02885,-107.95247 c 37.74939,-12.63655 67.25994,-40.07511 82.2104,-76.43831 2.34298,-5.69869 3.88495,-11.28294 4.20372,-15.22357 0.47387,-5.85879 0.36359,-6.27522 -1.88142,-7.10525 -4.07046,-1.50493 -37.11213,-2.26582 -47.64456,-1.0972 -5.59602,0.62094 -14.18894,2.52077 -20.19547,4.46513 -5.7502,1.86138 -10.66651,3.17277 -10.92508,2.91421 -0.25851,-0.25851 -0.72888,-6.4955 -1.04512,-13.85978 -0.47909,-11.15734 -0.88687,-13.73385 -2.44586,-15.45408 -2.59299,-2.86111 -7.745,-4.42634 -10.7762,-3.27388 -5.3783,2.04481 -5.32712,1.68046 -5.69132,40.51466 l -0.33827,36.07536 8.91358,-8.59272 c 14.13625,-13.62743 28.53951,-19.62564 52.56687,-21.89152 6.07505,-0.57286 11.41064,-0.6573 11.87999,-0.18784 2.28905,2.28901 -10.87028,20.83049 -23.02678,32.44473 -12.48438,11.92749 -24.75142,19.36417 -41.85311,25.37269 -5.93737,2.08601 -8.34509,3.43358 -8.73642,4.88957 -0.73856,2.748 -0.70942,15.97656 0.0393,17.92821 0.88881,2.3161 4.48198,1.95538 14.7456,-1.48034 z m -65.45986,-0.8506 c 1.85557,-1.17502 2.96014,-8.96614 2.08688,-14.7202 -0.79918,-5.26619 -1.52101,-5.85312 -10.97989,-8.9277 -7.91566,-2.57297 -21.50104,-9.35256 -29.16778,-14.55579 -11.67524,-7.92371 -28.92242,-28.00954 -33.6558,-39.19522 l -1.18962,-2.81119 7.25646,0.64531 c 29.7054,2.64161 43.83724,8.09833 59.68106,23.04458 3.91742,3.69549 7.39351,6.44821 7.72459,6.11712 0.33109,-0.33108 0.62118,-15.3581 0.64461,-33.39339 0.0378,-28.34532 -0.17727,-33.21299 -1.57826,-35.90059 -3.25579,-6.24517 -11.79737,-6.8403 -16.06853,-1.11954 -1.75449,2.34994 -2.11835,4.60387 -2.4756,15.33472 -0.40656,12.21224 -0.48095,12.56616 -2.545,12.10857 -15.85928,-3.51569 -29.30996,-5.85742 -39.12639,-6.81179 -15.20851,-1.4786 -30.51356,-0.6609 -34.84617,1.86168 -2.8231,1.64373 -3.18601,2.39 -3.45892,7.11265 -0.37154,6.43196 1.52043,12.4928 7.84327,25.12315 15.45532,30.87307 40.57245,52.14924 75.46204,63.92221 9.49771,3.20488 12.12687,3.60041 14.39305,2.16542 z m -130.768006,92.0305 c -7.53687,-7.04051 -6.68506,-17.94789 1.89784,-24.30162 4.18165,-3.0956 10.246136,-3.08033 14.509916,-0.79971 5.93343,3.17369 7.26415,9.6742 7.26907,13.18324 0.0673,5.64022 -5.66562,13.78586 -10.89966,14.62163 -5.155686,0.82326 -10.087416,-0.19087 -12.777166,-2.70354 z m 316.174536,-54.07712 c -8.63673,-5.26611 -8.64833,-18.97121 -0.0227,-25.40151 5.28612,-3.14914 9.98674,-2.28363 9.98674,-2.28363 0,0 5.28756,0.67329 9.56636,4.59064 2.72,2.49019 4.2058,6.4614 4.2346,10.33226 -0.097,4.20913 -3.7575,10.6584 -7.3689,12.76576 -4.3173,2.51926 -12.12644,2.60052 -16.39721,-0.004 z M 161.38191,-508.58846 c -6.26936,-3.89377 -9.30477,-6.84161 -8.83578,-13.04291 0.50537,-6.68238 1.3731,-8.60584 5.31737,-12.28515 8.0713,-5.97718 14.66463,-4.91152 20.40444,1.07956 7.5524,7.88303 5.88993,19.60152 -3.45704,24.36764 -4.44376,2.26593 -9.66332,2.21962 -13.42899,-0.11913 z"
       id="path3"
       sodipodi:nodetypes="cccccccccsssscssssssscssscssscssssscsssscsscsscsssscscsssssscssscsssccccccssccsccsssssssssscsssscssssssssssssssscsssssssssssssssssscsscssscssssssscsssccsscsscsssssscsscccscsccsscssss"
       inkscape:label="path1" /></g><g
     inkscape:groupmode="layer"
     id="layer2"
     inkscape:label="Camada 2"><rect
       style="fill:#374151;fill-opacity:1;fill-rule:nonzero;stroke-width:0.189125"
       id="rect4"
       width="388.73898"
       height="380.50385"
       x="63.59919"
       y="26.359037" /><path
       style="display:inline;fill:#ffffff;fill-opacity:1;stroke-width:3.77955"
       d="M -2.0527527,226.71635 V -23.284977 H 247.94851 497.94977 V 226.71635 476.71765 H 247.94851 -2.0527527 Z M 284.61756,398.10372 c 14.97483,-3.32358 27.53871,-7.85956 42.12622,-15.20909 18.96198,-9.55341 30.11278,-19.04525 46.78685,-35.65259 15.49938,-15.43731 24.93827,-28.40945 34.30236,-47.1428 l 5.05738,-10.11755 5.7795,-0.65409 c 14.885,-1.68453 25.4744,-14.59643 23.9751,-29.23348 -0.8896,-8.68551 -3.3309,-12.25381 -15.0868,-22.05205 -2.517,-2.09789 -2.6088,-2.55505 -2.6096,-13.00006 -5e-4,-5.95415 -0.467,-15.77575 -1.0367,-21.82579 -3.7624,-39.95449 -23.87525,-80.51443 -53.9596,-108.815685 C 324.37971,51.52913 263.49447,36.171445 201.08685,51.805955 l -8.37985,2.099341 -4.35257,-4.975651 c -5.36247,-6.130082 -10.67412,-8.450447 -19.40631,-8.477532 -18.10706,-0.05616 -29.65663,14.437476 -26.10833,32.763407 l 0.96815,5.000031 -5.63958,5.000014 c -12.80405,11.35202 -22.80899,21.465655 -28.83732,29.150445 -17.219393,21.95097 -29.363453,47.26259 -35.476003,73.94196 -2.02838,8.85325 -2.26676,12.4637 -2.23881,33.90836 0.0223,17.01494 0.49642,26.91059 1.62943,34.00016 1.53297,9.59226 8.38482,33.0101 11.33742,38.74836 1.3453,2.61454 1.22003,2.99359 -2.57656,7.79664 -8.77585,11.1023 -8.2252,25.12424 1.40526,35.78399 5.51955,6.10948 10.45718,7.60025 22.702563,6.85421 l 10.09795,-0.6152 6.6178,6.29982 c 26.61182,25.33314 55.73835,41.93789 90.78711,49.4451 10.28638,2.20325 22.44493,3.40522 36.26141,3.15792 20.77057,-0.37191 27.40783,-1.95655 34.73895,-3.58361 z M 224.41828,386.7867 c -20.72407,-3.65059 -43.9732,-11.60295 -58.18101,-19.90075 -10.34405,-6.04127 -25.63987,-17.71549 -34.14231,-26.05851 -6.08903,-5.97486 -7.23288,-7.59288 -6.65429,-9.41284 2.24942,-7.07539 2.80278,-13.00675 1.7444,-18.69795 -2.22086,-11.94208 -10.56338,-19.26049 -23.46214,-20.58201 l -6.633493,-0.67965 -3.95356,-10.61919 c -8.1378,-21.85806 -10.81408,-40.11533 -9.90623,-67.57905 0.41412,-12.52792 1.08199,-18.23039 3.04984,-26.0406 10.0421,-39.85603 31.075363,-72.42016 61.945873,-95.905895 l 3.77734,-2.87375 4.19764,1.88956 c 6.13762,2.76281 18.81663,2.59164 24.34252,-0.32882 7.15332,-3.7804 12.16931,-10.856788 13.77542,-19.434087 0.83276,-4.447076 3.66802,-5.79877 18.50621,-8.822596 28.44884,-5.797512 61.42928,-4.07674 86.83797,4.530814 35.36155,11.979245 68.36701,38.026864 88.15217,69.568834 5.86634,9.35222 13.3847,25.72386 16.93445,36.87571 5.11122,16.05722 7.35216,29.72463 8.6984,53.05078 l 0.60891,10.55057 -5.69774,1.79604 c -7.97847,2.51498 -14.68282,9.29579 -16.97005,17.16353 -2.91218,10.01761 -0.48484,19.2222 6.95313,26.36653 l 3.56773,3.42687 -5.40422,10.34821 c -19.92717,38.1574 -50.55411,66.39281 -88.28544,81.3916 -13.17179,5.23604 -32.38327,9.64211 -47.22112,10.83011 -17.77037,1.42277 -24.55659,1.26441 -36.5804,-0.85361 z m 31.483,-32.68336 3.10618,-2.61367 -0.27931,-125.80672 -0.27931,-125.806725 -2.32007,-2.46934 c -2.69001,-2.86304 -6.70042,-3.91167 -10.79847,-2.82354 -6.03729,1.60305 -5.79386,-3.63967 -6.16409,132.743855 l -0.33714,124.11148 3.13645,2.63917 c 4.25131,3.57723 9.70296,3.58721 13.93583,0.0264 z m -32.20288,-7.21725 c 0.7257,-0.9007 1.25,-4.40725 1.25,-8.36032 0,-8.61199 -0.79282,-9.44399 -13.05746,-13.70184 -19.93986,-6.92247 -37.44199,-18.4985 -48.82709,-32.29459 -6.33981,-7.6824 -13.79776,-20.94055 -16.48899,-29.31281 -2.17089,-6.75363 -3.53626,-14.43806 -2.66136,-14.97875 0.88298,-0.5457 28.79409,15.3479 42.45499,24.1754 5.54388,3.58241 13.22978,9.10278 17.07978,12.2675 9.78374,8.04224 18.60656,14.0883 19.63297,13.45395 0.47694,-0.2948 0.86714,-6.08174 0.86714,-12.85991 v -12.32397 l -6.75,-5.78486 c -8.60671,-7.37605 -20.89648,-15.39814 -44.75025,-29.21053 -10.45007,-6.05102 -23.89547,-13.98024 -29.87872,-17.62047 -11.00335,-6.69449 -13.21884,-7.43966 -16.65362,-5.60141 -6.40014,3.42526 -6.58492,30.27773 -0.35641,51.77148 10.60941,36.61085 37.86777,64.3249 76.88879,78.17422 14.22934,5.05023 18.59393,5.50355 21.25008,2.20691 z m 69.63166,-0.2793 c 40.83157,-13.92681 71.1633,-44.63365 80.71647,-81.71483 4.269,-16.57035 4.63996,-39.66808 0.7674,-47.78518 -2.0606,-4.3192 -6.87276,-4.3769 -13.54544,-0.16252 -2.84932,1.79959 -12.45545,7.77203 -21.34699,13.27207 -30.13212,18.63883 -42.79312,27.3895 -49.87451,34.47089 -12.64225,12.64221 -17.46208,26.96148 -16.88214,50.15508 0.24718,9.88234 0.51016,11.39394 2.03377,11.68587 2.52201,0.48322 12.39189,-4.27357 13.61699,-6.56269 0.57124,-1.06731 1.52655,-5.8676 2.12301,-10.66729 1.81157,-14.57846 6.94249,-24.18944 17.59625,-32.96029 5.66206,-4.66134 29.57517,-19.54849 41.91415,-26.09364 l 5.00003,-2.65227 0.30918,2.48789 c 0.42988,3.45844 -5.09049,19.45888 -9.85265,28.55709 -10.75243,20.54289 -33.00715,38.51449 -63.22594,51.05759 -4.36262,1.81082 -8.24146,4.10742 -8.84645,5.23789 -1.14343,2.13654 -0.39312,9.96542 1.24925,13.03447 1.4317,2.67536 7.80968,2.19993 18.24754,-1.36017 z m -5.02885,-107.95247 c 37.74939,-12.63655 67.25994,-40.07511 82.2104,-76.43831 2.34298,-5.69869 3.88495,-11.28294 4.20372,-15.22357 0.47387,-5.85879 0.36359,-6.27522 -1.88142,-7.10525 -4.07046,-1.50493 -37.11213,-2.26582 -47.64456,-1.0972 -5.59602,0.62094 -14.18894,2.52077 -20.19547,4.46513 -5.7502,1.86138 -10.66651,3.17277 -10.92508,2.91421 -0.25851,-0.25851 -0.72888,-6.4955 -1.04512,-13.85978 -0.47909,-11.15734 -0.88687,-13.73385 -2.44586,-15.45408 -2.59299,-2.86111 -7.745,-4.42634 -10.7762,-3.27388 -5.3783,2.04481 -5.32712,1.68046 -5.69132,40.51466 l -0.33827,36.07536 8.91358,-8.59272 c 14.13625,-13.62743 28.53951,-19.62564 52.56687,-21.89152 6.07505,-0.57286 11.41064,-0.6573 11.87999,-0.18784 2.28905,2.28901 -10.87028,20.83049 -23.02678,32.44473 -12.48438,11.92749 -24.75142,19.36417 -41.85311,25.37269 -5.93737,2.08601 -8.34509,3.43358 -8.73642,4.88957 -0.73856,2.748 -0.70942,15.97656 0.0393,17.92821 0.88881,2.3161 4.48198,1.95538 14.7456,-1.48034 z m -65.45986,-0.8506 c 1.85557,-1.17502 2.96014,-8.96614 2.08688,-14.7202 -0.79918,-5.26619 -1.52101,-5.85312 -10.97989,-8.9277 -7.91566,-2.57297 -21.50104,-9.35256 -29.16778,-14.55579 -11.67524,-7.92371 -28.92242,-28.00954 -33.6558,-39.19522 l -1.18962,-2.81119 7.25646,0.64531 c 29.7054,2.64161 43.83724,8.09833 59.68106,23.04458 3.91742,3.69549 7.39351,6.44821 7.72459,6.11712 0.33109,-0.33108 0.62118,-15.3581 0.64461,-33.39339 0.0378,-28.34532 -0.17727,-33.21299 -1.57826,-35.90059 -3.25579,-6.24517 -11.79737,-6.8403 -16.06853,-1.11954 -1.75449,2.34994 -2.11835,4.60387 -2.4756,15.33472 -0.40656,12.21224 -0.48095,12.56616 -2.545,12.10857 -15.85928,-3.51569 -29.30996,-5.85742 -39.12639,-6.81179 -15.20851,-1.4786 -30.51356,-0.6609 -34.84617,1.86168 -2.8231,1.64373 -3.18601,2.39 -3.45892,7.11265 -0.37154,6.43196 1.52043,12.4928 7.84327,25.12315 15.45532,30.87307 40.57245,52.14924 75.46204,63.92221 9.49771,3.20488 12.12687,3.60041 14.39305,2.16542 z m -130.768013,92.0305 c -7.53687,-7.04051 -6.68506,-17.94789 1.89784,-24.30162 4.18165,-3.0956 10.246143,-3.08033 14.509923,-0.79971 5.93343,3.17369 7.26415,9.6742 7.26907,13.18324 0.0673,5.64022 -5.66562,13.78586 -10.89966,14.62163 -5.155693,0.82326 -10.087423,-0.19087 -12.777173,-2.70354 z M 408.24788,275.7571 c -8.63673,-5.26611 -8.64833,-18.97121 -0.0227,-25.40151 5.28612,-3.14914 9.98669,-2.28363 9.98669,-2.28363 0,0 5.2876,0.67329 9.5664,4.59064 2.72,2.49019 4.2058,6.4614 4.2346,10.33226 -0.097,4.20913 -3.7575,10.6584 -7.3689,12.76576 -4.3173,2.51926 -12.12643,2.60052 -16.3972,-0.004 z M 161.44806,79.844857 c -6.26936,-3.893763 -9.30477,-6.841609 -8.83578,-13.042908 0.50537,-6.682378 1.3731,-8.605835 5.31737,-12.285152 8.0713,-5.977175 14.66463,-4.911513 20.40444,1.079564 7.5524,7.883027 5.88993,19.601514 -3.45704,24.367636 -4.44376,2.265928 -9.66332,2.219618 -13.42899,-0.11913 z"
       id="path4"
       sodipodi:nodetypes="cccccccccsssscssssssscssscssscssssscsssscsscsscsssscscsssssscssscsssccccccssccsccsssssssssscsssscssssssssssssssscsssssssssssssssssscsscssscssssssscsssccsscsscsssssscsscccscsccsscssss"
       inkscape:label="path1" /></g></svg>
